<svg xmlns="http://www.w3.org/2000/svg" xmlns:xlink="http://www.w3.org/1999/xlink" width="331.566" height="26.684" viewBox="0 0 331.566 26.684"><defs><style>.a,.u{fill:none;}.b{clip-path:url(#a);}.c{clip-path:url(#b);}.d{fill:#00aded;}.e{clip-path:url(#c);}.f{clip-path:url(#d);}.g{clip-path:url(#e);}.h{clip-path:url(#f);}.i{clip-path:url(#g);}.j{clip-path:url(#i);}.k{clip-path:url(#k);}.l{clip-path:url(#m);}.m{clip-path:url(#o);}.n{clip-path:url(#q);}.o{clip-path:url(#r);}.p{clip-path:url(#s);}.q{fill:#0854c4;}.r{clip-path:url(#t);}.s{clip-path:url(#u);}.t{isolation:isolate;}.u{stroke:#0854c4;stroke-width:0.5px;}</style><clipPath id="a"><path class="a" d="M220.007,818.471h-3.255l.011,13.181c.018,3.345,1.667,5.317,5.225,5.336,1.512,0,2.42-.505,2.793-1.309V833.6a5.888,5.888,0,0,1-2.367.383,2.3,2.3,0,0,1-1.778-.65,3.035,3.035,0,0,1-.63-2.119v-6.168h2.851a1.762,1.762,0,0,0,1.975-1.518c0-.022.005-.043.008-.064v-1.335h-4.834Zm-11.8,3.661c-4.391,0-6.3,3.072-6.317,6.087v8.519h3.271v-8.274a3.878,3.878,0,0,1,.759-2.51,2.5,2.5,0,0,1,1.995-.9,2.81,2.81,0,0,1,2.247.895,4.194,4.194,0,0,1,.8,2.788v8.007h3.267v-8.326c-.007-4.056-2.71-6.271-6.022-6.28Zm-12.161,14.606h3.283V818.471H196.04Zm43.336-9.068v9.068h3.294v-8.417a3.773,3.773,0,0,1,.671-2.479,2.4,2.4,0,0,1,1.949-.776,5.23,5.23,0,0,1,.9.074v-2.667a3.611,3.611,0,0,0-1.667-.35c-3.691.006-5.132,2.677-5.144,5.546Zm-5.69.753a11.187,11.187,0,0,1-3.39.323H228.55l.01-.155.026-.489a3.236,3.236,0,0,1,3.152-3.244,3.357,3.357,0,0,1,2.063.578,2.119,2.119,0,0,1,.8,1.755,1.193,1.193,0,0,1-.906,1.232Zm-1.635-6.291c-4.017,0-6.864,2.962-6.877,7.764a6.919,6.919,0,0,0,6.743,7.09l.157,0c2.076,0,3.365-.331,4.116-.958V833.6a7.813,7.813,0,0,1-3.452.709c-2.149.006-3.879-1.2-4.16-3.123l-.024-.171h2.51a11.962,11.962,0,0,0,5.074-.749,2.642,2.642,0,0,0,1.506-2.641,5.431,5.431,0,0,0-5.366-5.495c-.078,0-.156,0-.234,0Z"/></clipPath><clipPath id="b"><rect class="a" width="1270.509" height="794.068" transform="translate(52.658 802.687)"/></clipPath><clipPath id="c"><path class="a" d="M262.637,828.745l.012-.155.023-.489a3.236,3.236,0,0,1,3.149-3.244,3.351,3.351,0,0,1,2.066.578,2.1,2.1,0,0,1,.8,1.755,1.194,1.194,0,0,1-.9,1.232,11.19,11.19,0,0,1-3.391.323Zm7.594,1.52a2.643,2.643,0,0,0,1.507-2.641,5.432,5.432,0,0,0-5.367-5.495c-.076,0-.152,0-.227,0-4.018,0-6.867,2.962-6.877,7.764a6.917,6.917,0,0,0,6.741,7.09l.159,0c2.077,0,3.369-.331,4.12-.958V833.6a7.833,7.833,0,0,1-3.453.709c-2.151.006-3.88-1.2-4.162-3.123l-.023-.171h2.51a11.934,11.934,0,0,0,5.072-.749Z"/></clipPath><clipPath id="d"><rect class="a" width="1270.509" height="794.068" transform="translate(52.657 802.687)"/></clipPath><clipPath id="e"><path class="a" d="M302.024,827.67v9.068h3.3v-8.417a3.773,3.773,0,0,1,.672-2.479,2.4,2.4,0,0,1,1.948-.776,5.134,5.134,0,0,1,.9.074v-2.667a3.594,3.594,0,0,0-1.669-.35c-3.69.006-5.13,2.677-5.145,5.546"/></clipPath><clipPath id="f"><rect class="a" width="1270.509" height="794.068" transform="translate(52.658 802.686)"/></clipPath><clipPath id="g"><path class="a" d="M252.2,836.93c-2.4,0-4.2-1.343-4.2-2.791V832.53h.121a6.188,6.188,0,0,0,3.926,1.345c1.6,0,2.376-.5,2.376-1.558,0-.816-.461-1.209-2.718-1.553-2.76-.421-4.092-1.607-4.092-3.767,0-2.663,2.2-4.928,5.548-4.928,2.963,0,4.172,1.658,4.172,3.029v1.343h-.121a5.428,5.428,0,0,0-3.732-1.314c-1.99,0-2.619.655-2.619,1.579,0,.712.389,1,2.619,1.4,2.71.476,4.167,1.766,4.167,4.032,0,3-1.94,4.795-5.449,4.795"/></clipPath><clipPath id="i"><path class="a" d="M276.535,828.913c0,1.863,1.049,3.248,2.619,3.248,1.639,0,2.815-1.331,2.815-3.62,0-2.235-1.032-3.328-2.471-3.328-1.688,0-2.964,1.546-2.964,3.7m8.7,3.767c.024.579.052,1.344.052,1.817,0,3.557-2.182,6.745-6.4,6.745-2.692,0-4.534-1.42-4.534-3.108v-1.608h.145a5.508,5.508,0,0,0,4.148,1.528c2.348,0,3.413-1.211,3.413-3.267,0-.208,0-.5-.023-.739,0-.208-.022-.579-.022-.709V833a3.332,3.332,0,0,1-3.369,2.106c-3.178,0-5.431-2.4-5.431-5.746,0-4,2.42-7.246,6.639-7.246,3.251,0,5.332,2.583,5.332,6.221v2.423c0,.475.024,1.29.049,1.924"/></clipPath><clipPath id="k"><path class="a" d="M315.9,825.051c-1.987,0-3,1.757-3,4.2,0,2.936,1.01,4.7,3.3,4.7,2.016,0,3-1.76,3-4.176,0-2.965-1.033-4.722-3.3-4.722m.3-2.981c4.014,0,6.321,3.424,6.321,7.2,0,4.267-2.307,7.666-6.619,7.666-4.014,0-6.32-3.4-6.32-7.166,0-4.27,2.307-7.694,6.619-7.694"/></clipPath><clipPath id="m"><path class="a" d="M293.479,837.029a5.877,5.877,0,0,0,6.284-5.438,6.008,6.008,0,0,0,.01-.671v-8.548h-3.258v8.3a3.91,3.91,0,0,1-.758,2.515,2.482,2.482,0,0,1-1.986.911,2.8,2.8,0,0,1-2.243-.9,4.216,4.216,0,0,1-.8-2.8v-8.033h-3.256v8.357c.008,4.072,2.7,6.292,6,6.3"/></clipPath><clipPath id="o"><rect class="a" width="25.532" height="26.083" transform="translate(165.592 814.558)"/></clipPath><clipPath id="q"><rect class="a" width="25" height="27" transform="translate(165.809 814.416)"/></clipPath><clipPath id="r"><path class="a" d="M185.157,833.383l-13.6,2.512V821.863l13.6-2.512ZM169,814.558a3.454,3.454,0,0,0-3.409,3.5v22.586h22.117a3.458,3.458,0,0,0,3.412-3.5V814.561Z"/></clipPath><clipPath id="s"><rect class="a" width="25.587" height="27.351" transform="translate(165.592 814.156)"/></clipPath><clipPath id="t"><path class="a" d="M336.757,815.038a.882.882,0,0,1,.882.882h0v23.818a.882.882,0,0,1-.882.882h0a.882.882,0,0,1-.882-.882h0V815.916A.881.881,0,0,1,336.757,815.038Z"/></clipPath><clipPath id="u"><rect class="a" width="1270.509" height="794.068" transform="translate(52.657 802.686)"/></clipPath></defs><g transform="translate(-165.592 -814.558)"><g class="b"><g class="c"><path class="d" d="M191.631,841.4H250.6V814.06h-58.97Z"/></g></g><g class="e"><g class="f"><path class="d" d="M254.855,841.4h21.294V817.721H254.855Z"/></g></g><g class="g"><g class="h"><path class="d" d="M297.612,841.149h15.637V817.711H297.612Z"/></g></g><g class="i"><g class="h"><path class="d" d="M243.206,841.342h18.857V817.659H243.206Z"/></g></g><g class="j"><g class="h"><path class="d" d="M268.8,845.653h20.9V817.7H268.8Z"/></g></g><g class="k"><g class="h"><path class="d" d="M305.172,841.342h21.763V817.659H305.172Z"/></g></g><g class="l"><g class="h"><path class="d" d="M283.065,841.44h21.12V817.959h-21.12Z"/></g></g><g class="m"><g class="h"><g class="n"><g class="o"><g class="p"><path class="q" d="M161.181,845.053h34.354V810.147H161.181Z"/></g></g></g></g></g><g class="r"><g class="s"><path class="q" d="M331.463,845.037h10.588v-34.41H331.463Z"/></g></g><g class="t"><g class="t"><path class="q" d="M351.449,831.1a1.31,1.31,0,0,1,.94-1.1,4.7,4.7,0,0,0,3.9,1.981c1.8,0,2.82-.741,2.82-2.021,0-1.46-1.52-1.8-3.24-2.2-2-.46-4.081-1.16-4.081-3.781,0-2.2,1.9-3.761,4.661-3.761a5.856,5.856,0,0,1,3.66,1.06,1.714,1.714,0,0,1,.781,1.241,1.358,1.358,0,0,1-.96,1.14,4.245,4.245,0,0,0-3.461-1.741c-1.62,0-2.681.78-2.681,1.981,0,1.42,1.26,1.64,3.061,2.06,2.2.5,4.321,1.36,4.321,3.861,0,2.38-1.84,3.861-4.861,3.861a6.184,6.184,0,0,1-4.2-1.34A1.821,1.821,0,0,1,351.449,831.1Z"/><path class="q" d="M367.449,823.554a4.481,4.481,0,0,1,4.621,4.841v.16c0,.42-.14.58-.6.58h-7.1a2.2,2.2,0,0,0,.04.36,3.126,3.126,0,0,0,3.24,2.621,3.164,3.164,0,0,0,3.021-1.6c.04-.04,1.04.139,1.04.98a1.926,1.926,0,0,1-1.06,1.4,5.693,5.693,0,0,1-3.041.78,4.783,4.783,0,0,1-5.081-5.021A4.875,4.875,0,0,1,367.449,823.554Zm-.02,1.5a3.067,3.067,0,0,0-3.04,2.74h5.761A2.642,2.642,0,0,0,367.429,825.055Z"/><path class="q" d="M372.648,834.977c0-1.4,1.32-2.341,3.06-2.641a1.118,1.118,0,0,1-.379-.9,1.41,1.41,0,0,1,.54-1.04,3.349,3.349,0,0,1-2.521-3.2,3.832,3.832,0,0,1,4.121-3.64,4.848,4.848,0,0,1,2.3.58l.52-.92a1.267,1.267,0,0,1,1.14-.76,1.081,1.081,0,0,1,1.02.84l-1.64,1.7a3.271,3.271,0,0,1,.84,2.141c0,2.02-1.72,3.5-4.161,3.5h-.36a.557.557,0,0,0-.1.34c0,.62.92.679,2.6,1.1,1.361.36,2.8,1.04,2.8,2.62,0,1.821-1.86,2.941-5.041,2.941C374.148,837.637,372.648,836.776,372.648,834.977Zm7.862-.221c0-.76-.9-1.04-1.961-1.3l-1-.24c-1.64.1-3,.68-3,1.7,0,.86.981,1.341,2.881,1.341C379.37,836.257,380.51,835.717,380.51,834.756Zm-.781-7.6a2.127,2.127,0,0,0-2.28-2.179,2.1,2.1,0,0,0-2.22,2.179,2.251,2.251,0,0,0,4.5,0Z"/><path class="q" d="M392.47,824.654v8.622a.959.959,0,0,1-.7.22,1.12,1.12,0,0,1-1.18-.9,2.748,2.748,0,0,1-.08-.62,3.737,3.737,0,0,1-3.2,1.68c-2.54,0-3.7-1.72-3.7-4.121v-4.881c0-.72.361-.96.861-.96h.22c.52,0,.88.22.88.96v4.641c0,1.66.84,2.641,2.3,2.641a2.889,2.889,0,0,0,2.64-1.7v-5.581c0-.72.36-.96.86-.96h.22C392.11,823.694,392.47,823.914,392.47,824.654Z"/><path class="q" d="M400.89,824.834a.982.982,0,0,1-.6,1.02,1.868,1.868,0,0,0-1.221-.419c-1.56,0-2.18,1.52-2.18,3.74v3.381c0,.72-.38.94-.881.94h-.219c-.52,0-.881-.22-.881-.94v-8.642a.985.985,0,0,1,.72-.22,1.133,1.133,0,0,1,1.161.96,3.587,3.587,0,0,1,.08.72,2.435,2.435,0,0,1,2.44-1.82C400.31,823.554,400.89,824.034,400.89,824.834Z"/><path class="q" d="M406.229,823.554a5.061,5.061,0,1,1-5.061,5.041A4.859,4.859,0,0,1,406.229,823.554Zm-.02,1.62a3.232,3.232,0,0,0-3.221,3.421,3.268,3.268,0,0,0,3.221,3.461,3.45,3.45,0,0,0,0-6.882Z"/><path class="q" d="M419.628,832.756l-4.64-11.7c-.08-.181.56-.66,1.22-.66a1.224,1.224,0,0,1,1.2.939l3.521,9.862,3.521-9.862a1.2,1.2,0,0,1,1.14-.939c.64,0,1.26.479,1.2.66l-4.621,11.7a1.142,1.142,0,0,1-1.28.78A1.127,1.127,0,0,1,419.628,832.756Z"/><path class="q" d="M432.049,823.554a4.481,4.481,0,0,1,4.621,4.841v.16c0,.42-.14.58-.6.58h-7.1a2.2,2.2,0,0,0,.04.36,3.128,3.128,0,0,0,3.241,2.621,3.165,3.165,0,0,0,3.021-1.6c.04-.04,1.04.139,1.04.98a1.926,1.926,0,0,1-1.06,1.4,5.7,5.7,0,0,1-3.041.78,4.783,4.783,0,0,1-5.081-5.021A4.875,4.875,0,0,1,432.049,823.554Zm-.02,1.5a3.068,3.068,0,0,0-3.041,2.74h5.762A2.644,2.644,0,0,0,432.029,825.055Z"/><path class="q" d="M447.39,827.715v4.841c0,.72-.38.94-.88.94h-.22c-.52,0-.881-.22-.881-.94v-4.621c0-1.661-.84-2.641-2.22-2.641a2.576,2.576,0,0,0-2.7,2.821v4.441c0,.72-.38.94-.88.94h-.22c-.52,0-.88-.22-.88-.94V819.894a.977.977,0,0,1,.72-.221c.6,0,1.26.32,1.26,1.7v3.941a3.615,3.615,0,0,1,3.181-1.76C446.209,823.554,447.39,825.314,447.39,827.715Z"/><path class="q" d="M450.848,819.553a1.151,1.151,0,1,1-.02,2.3,1.151,1.151,0,1,1,.02-2.3Zm-1.04,5.1c0-.72.379-.96.9-.96h.2c.52,0,.88.22.88.96v7.9c0,.72-.36.94-.88.94h-.2c-.521,0-.9-.22-.9-.94Z"/><path class="q" d="M458.749,823.554a4.809,4.809,0,0,1,3.14,1,2.4,2.4,0,0,1,.981,1.661c0,.819-1.121.979-1.181.88a2.852,2.852,0,0,0-2.9-1.881,3.41,3.41,0,0,0,0,6.8,2.872,2.872,0,0,0,2.9-1.88c.06-.1,1.181.04,1.181.9a2.365,2.365,0,0,1-1,1.641,4.749,4.749,0,0,1-3.12,1,5.061,5.061,0,0,1,0-10.122Z"/><path class="q" d="M473.429,824.654v8.622a.959.959,0,0,1-.7.22,1.121,1.121,0,0,1-1.181-.9,2.748,2.748,0,0,1-.08-.62,3.737,3.737,0,0,1-3.2,1.68c-2.541,0-3.7-1.72-3.7-4.121v-4.881c0-.72.36-.96.86-.96h.22c.52,0,.88.22.88.96v4.641c0,1.66.841,2.641,2.3,2.641a2.889,2.889,0,0,0,2.64-1.7v-5.581c0-.72.361-.96.861-.96h.22C473.069,823.694,473.429,823.914,473.429,824.654Z"/><path class="q" d="M475.947,832.556V819.894a1.022,1.022,0,0,1,.72-.221c.621,0,1.261.32,1.261,1.7v11.183c0,.72-.361.94-.881.94h-.2C476.327,833.5,475.947,833.276,475.947,832.556Z"/><path class="q" d="M486.368,827.635h.26v-.2a2.092,2.092,0,0,0-2.38-2.261,2.908,2.908,0,0,0-2.761,1.64c0,.021-1.22,0-1.22-.96a1.749,1.749,0,0,1,.66-1.2,5.11,5.11,0,0,1,3.461-1.1c2.72,0,4.2,1.4,4.2,3.841v5.9c0,.1-.359.22-.719.22a1.073,1.073,0,0,1-1.141-.88,2.982,2.982,0,0,1-.08-.66,4.16,4.16,0,0,1-3.461,1.66c-2.06,0-3.28-1.1-3.28-2.74C479.907,828.675,482.027,827.715,486.368,827.635Zm.26,1.24-.54.021c-2.8.1-4.241.62-4.241,1.919,0,.861.68,1.4,1.82,1.4a2.7,2.7,0,0,0,2.961-2.6Z"/><path class="q" d="M496.908,824.834a.982.982,0,0,1-.6,1.02,1.863,1.863,0,0,0-1.22-.419c-1.561,0-2.181,1.52-2.181,3.74v3.381c0,.72-.38.94-.88.94h-.22c-.52,0-.88-.22-.88-.94v-8.642a.983.983,0,0,1,.72-.22,1.132,1.132,0,0,1,1.16.96,3.59,3.59,0,0,1,.08.72,2.436,2.436,0,0,1,2.441-1.82C496.328,823.554,496.908,824.034,496.908,824.834Z"/></g><g class="t"><path class="u" d="M351.449,831.1a1.31,1.31,0,0,1,.94-1.1,4.7,4.7,0,0,0,3.9,1.981c1.8,0,2.82-.741,2.82-2.021,0-1.46-1.52-1.8-3.24-2.2-2-.46-4.081-1.16-4.081-3.781,0-2.2,1.9-3.761,4.661-3.761a5.856,5.856,0,0,1,3.66,1.06,1.714,1.714,0,0,1,.781,1.241,1.358,1.358,0,0,1-.96,1.14,4.245,4.245,0,0,0-3.461-1.741c-1.62,0-2.681.78-2.681,1.981,0,1.42,1.26,1.64,3.061,2.06,2.2.5,4.321,1.36,4.321,3.861,0,2.38-1.84,3.861-4.861,3.861a6.184,6.184,0,0,1-4.2-1.34A1.821,1.821,0,0,1,351.449,831.1Z"/><path class="u" d="M367.449,823.554a4.481,4.481,0,0,1,4.621,4.841v.16c0,.42-.14.58-.6.58h-7.1a2.2,2.2,0,0,0,.04.36,3.126,3.126,0,0,0,3.24,2.621,3.164,3.164,0,0,0,3.021-1.6c.04-.04,1.04.139,1.04.98a1.926,1.926,0,0,1-1.06,1.4,5.693,5.693,0,0,1-3.041.78,4.783,4.783,0,0,1-5.081-5.021A4.875,4.875,0,0,1,367.449,823.554Zm-.02,1.5a3.067,3.067,0,0,0-3.04,2.74h5.761A2.642,2.642,0,0,0,367.429,825.055Z"/><path class="u" d="M372.648,834.977c0-1.4,1.32-2.341,3.06-2.641a1.118,1.118,0,0,1-.379-.9,1.41,1.41,0,0,1,.54-1.04,3.349,3.349,0,0,1-2.521-3.2,3.832,3.832,0,0,1,4.121-3.64,4.848,4.848,0,0,1,2.3.58l.52-.92a1.267,1.267,0,0,1,1.14-.76,1.081,1.081,0,0,1,1.02.84l-1.64,1.7a3.271,3.271,0,0,1,.84,2.141c0,2.02-1.72,3.5-4.161,3.5h-.36a.557.557,0,0,0-.1.34c0,.62.92.679,2.6,1.1,1.361.36,2.8,1.04,2.8,2.62,0,1.821-1.86,2.941-5.041,2.941C374.148,837.637,372.648,836.776,372.648,834.977Zm7.862-.221c0-.76-.9-1.04-1.961-1.3l-1-.24c-1.64.1-3,.68-3,1.7,0,.86.981,1.341,2.881,1.341C379.37,836.257,380.51,835.717,380.51,834.756Zm-.781-7.6a2.127,2.127,0,0,0-2.28-2.179,2.1,2.1,0,0,0-2.22,2.179,2.251,2.251,0,0,0,4.5,0Z"/><path class="u" d="M392.47,824.654v8.622a.959.959,0,0,1-.7.22,1.12,1.12,0,0,1-1.18-.9,2.748,2.748,0,0,1-.08-.62,3.737,3.737,0,0,1-3.2,1.68c-2.54,0-3.7-1.72-3.7-4.121v-4.881c0-.72.361-.96.861-.96h.22c.52,0,.88.22.88.96v4.641c0,1.66.84,2.641,2.3,2.641a2.889,2.889,0,0,0,2.64-1.7v-5.581c0-.72.36-.96.86-.96h.22C392.11,823.694,392.47,823.914,392.47,824.654Z"/><path class="u" d="M400.89,824.834a.982.982,0,0,1-.6,1.02,1.868,1.868,0,0,0-1.221-.419c-1.56,0-2.18,1.52-2.18,3.74v3.381c0,.72-.38.94-.881.94h-.219c-.52,0-.881-.22-.881-.94v-8.642a.985.985,0,0,1,.72-.22,1.133,1.133,0,0,1,1.161.96,3.587,3.587,0,0,1,.08.72,2.435,2.435,0,0,1,2.44-1.82C400.31,823.554,400.89,824.034,400.89,824.834Z"/><path class="u" d="M406.229,823.554a5.061,5.061,0,1,1-5.061,5.041A4.859,4.859,0,0,1,406.229,823.554Zm-.02,1.62a3.232,3.232,0,0,0-3.221,3.421,3.268,3.268,0,0,0,3.221,3.461,3.45,3.45,0,0,0,0-6.882Z"/><path class="u" d="M419.628,832.756l-4.64-11.7c-.08-.181.56-.66,1.22-.66a1.224,1.224,0,0,1,1.2.939l3.521,9.862,3.521-9.862a1.2,1.2,0,0,1,1.14-.939c.64,0,1.26.479,1.2.66l-4.621,11.7a1.142,1.142,0,0,1-1.28.78A1.127,1.127,0,0,1,419.628,832.756Z"/><path class="u" d="M432.049,823.554a4.481,4.481,0,0,1,4.621,4.841v.16c0,.42-.14.58-.6.58h-7.1a2.2,2.2,0,0,0,.04.36,3.128,3.128,0,0,0,3.241,2.621,3.165,3.165,0,0,0,3.021-1.6c.04-.04,1.04.139,1.04.98a1.926,1.926,0,0,1-1.06,1.4,5.7,5.7,0,0,1-3.041.78,4.783,4.783,0,0,1-5.081-5.021A4.875,4.875,0,0,1,432.049,823.554Zm-.02,1.5a3.068,3.068,0,0,0-3.041,2.74h5.762A2.644,2.644,0,0,0,432.029,825.055Z"/><path class="u" d="M447.39,827.715v4.841c0,.72-.38.94-.88.94h-.22c-.52,0-.881-.22-.881-.94v-4.621c0-1.661-.84-2.641-2.22-2.641a2.576,2.576,0,0,0-2.7,2.821v4.441c0,.72-.38.94-.88.94h-.22c-.52,0-.88-.22-.88-.94V819.894a.977.977,0,0,1,.72-.221c.6,0,1.26.32,1.26,1.7v3.941a3.615,3.615,0,0,1,3.181-1.76C446.209,823.554,447.39,825.314,447.39,827.715Z"/><path class="u" d="M450.848,819.553a1.151,1.151,0,1,1-.02,2.3,1.151,1.151,0,1,1,.02-2.3Zm-1.04,5.1c0-.72.379-.96.9-.96h.2c.52,0,.88.22.88.96v7.9c0,.72-.36.94-.88.94h-.2c-.521,0-.9-.22-.9-.94Z"/><path class="u" d="M458.749,823.554a4.809,4.809,0,0,1,3.14,1,2.4,2.4,0,0,1,.981,1.661c0,.819-1.121.979-1.181.88a2.852,2.852,0,0,0-2.9-1.881,3.41,3.41,0,0,0,0,6.8,2.872,2.872,0,0,0,2.9-1.88c.06-.1,1.181.04,1.181.9a2.365,2.365,0,0,1-1,1.641,4.749,4.749,0,0,1-3.12,1,5.061,5.061,0,0,1,0-10.122Z"/><path class="u" d="M473.429,824.654v8.622a.959.959,0,0,1-.7.22,1.121,1.121,0,0,1-1.181-.9,2.748,2.748,0,0,1-.08-.62,3.737,3.737,0,0,1-3.2,1.68c-2.541,0-3.7-1.72-3.7-4.121v-4.881c0-.72.36-.96.86-.96h.22c.52,0,.88.22.88.96v4.641c0,1.66.841,2.641,2.3,2.641a2.889,2.889,0,0,0,2.64-1.7v-5.581c0-.72.361-.96.861-.96h.22C473.069,823.694,473.429,823.914,473.429,824.654Z"/><path class="u" d="M475.947,832.556V819.894a1.022,1.022,0,0,1,.72-.221c.621,0,1.261.32,1.261,1.7v11.183c0,.72-.361.94-.881.94h-.2C476.327,833.5,475.947,833.276,475.947,832.556Z"/><path class="u" d="M486.368,827.635h.26v-.2a2.092,2.092,0,0,0-2.38-2.261,2.908,2.908,0,0,0-2.761,1.64c0,.021-1.22,0-1.22-.96a1.749,1.749,0,0,1,.66-1.2,5.11,5.11,0,0,1,3.461-1.1c2.72,0,4.2,1.4,4.2,3.841v5.9c0,.1-.359.22-.719.22a1.073,1.073,0,0,1-1.141-.88,2.982,2.982,0,0,1-.08-.66,4.16,4.16,0,0,1-3.461,1.66c-2.06,0-3.28-1.1-3.28-2.74C479.907,828.675,482.027,827.715,486.368,827.635Zm.26,1.24-.54.021c-2.8.1-4.241.62-4.241,1.919,0,.861.68,1.4,1.82,1.4a2.7,2.7,0,0,0,2.961-2.6Z"/><path class="u" d="M496.908,824.834a.982.982,0,0,1-.6,1.02,1.863,1.863,0,0,0-1.22-.419c-1.561,0-2.181,1.52-2.181,3.74v3.381c0,.72-.38.94-.88.94h-.22c-.52,0-.88-.22-.88-.94v-8.642a.983.983,0,0,1,.72-.22,1.132,1.132,0,0,1,1.16.96,3.59,3.59,0,0,1,.08.72,2.436,2.436,0,0,1,2.441-1.82C496.328,823.554,496.908,824.034,496.908,824.834Z"/></g></g></g></svg>